<svg width="128" height="159" viewBox="0 0 128 159" fill="none" xmlns="http://www.w3.org/2000/svg">
<path d="M34.9524 17.6189V6.19028H51.3809V0H29V23.8092H51.3809V17.6189H34.9524Z" fill="#222123"/>
<path d="M60.9938 9.31533V6.45791H77.3333V6.19028V0H54.9521V14.7615H70.9937V17.6189H54.9521V23.8092H77.3333V17.6189V9.31533H60.9938Z" fill="#222123"/>
<path d="M86.5294 9.31533V6.45791H102.869V6.19028V0H80.4878V14.7615H96.5293V17.6189H80.4878V23.8092H102.869V17.6189V9.31533H86.5294Z" fill="#222123"/>
<path d="M127.143 24L117.154 139.843C102.35 151.329 83.7607 158.164 63.5715 158.164C43.3822 158.164 24.7929 151.329 9.98936 139.843L0 24H127.143Z" fill="#006BC0"/>
<path d="M64 31V151.982L105.792 140.183L115.115 31H64Z" fill="#0096DC"/>
<path d="M100.57 78.1429H70.4287L101.925 62.1137L103.286 46H24L25.3874 62.4285H57.2144L26.677 77.6976L28.0978 94.5273H82.5713L80.7858 114.571L63.643 119.214L45.7858 114.214L45.3394 101.714H28.7048L30.7857 126.357L63.643 135.643L96.4999 126.357L100.571 78.1402L100.57 78.1429Z" fill="white"/>
</svg>
