<svg width="175" height="176" viewBox="0 0 175 176" fill="none" xmlns="http://www.w3.org/2000/svg">
<g clip-path="url(#clip0)">
<path d="M2.67554 45.5225C1.06703 45.5225 -0.131313 46.4954 0.0115592 47.6842L13.5711 160.573C13.7139 161.762 15.0982 162.996 16.6486 163.316L74.1884 175.174C75.7385 175.493 78.2743 175.493 79.8247 175.175L137.539 163.297C139.09 162.978 140.476 161.744 140.618 160.555L154.2 47.6842C154.344 46.4954 153.144 45.5225 151.536 45.5225H2.67554ZM125.323 71.4131C125.195 72.4735 124.974 74.3146 124.831 75.5037L124.474 78.4656C124.33 79.6541 124.125 81.3541 124.017 82.2428C123.909 83.1318 123.807 83.8591 123.788 83.8591C123.77 83.8591 122.439 83.8591 120.831 83.8591H80.0301C78.4216 83.8591 77.0923 83.8591 77.0749 83.8591C77.0575 83.8591 75.7268 83.8591 74.1183 83.8591H52.6301C51.0216 83.8591 49.8233 84.8321 49.9661 86.0209L51.2195 96.4198C51.3624 97.6084 52.7959 98.5816 54.4041 98.5816H74.1187C75.7272 98.5816 77.0575 98.5816 77.0752 98.5816C77.093 98.5816 78.4223 98.5816 80.0304 98.5816H113.917C115.526 98.5816 118.015 98.5816 119.448 98.5816C120.881 98.5816 121.947 99.4495 121.817 100.51C121.687 101.57 121.464 103.412 121.321 104.601L117.291 138.126C117.147 139.315 116.966 140.834 116.887 141.502C116.807 142.169 115.474 142.976 113.924 143.295L79.9241 150.293C78.3741 150.611 77.0865 150.875 77.0623 150.879C77.0383 150.883 75.7511 150.625 74.2004 150.306L40.164 143.296C38.614 142.977 37.229 141.743 37.0865 140.554L34.8956 122.302C34.7527 121.113 35.9524 120.14 37.5609 120.14H40.6672C42.2757 120.14 44.9075 120.14 46.5157 120.14H51.1477C52.7562 120.14 54.1884 121.113 54.3323 122.302L55.1916 129.447C55.3344 130.636 56.7211 131.863 58.2743 132.174L74.1949 135.365C75.747 135.677 77.0233 135.931 77.0305 135.931C77.0376 135.931 78.3132 135.676 79.866 135.365L95.8154 132.166C97.3675 131.855 98.7555 130.627 98.8994 129.439L100.629 115.123C100.773 113.934 99.5745 112.961 97.966 112.961H80.0304C78.4219 112.961 77.0927 112.961 77.0752 112.961C77.0578 112.961 75.7272 112.961 74.1187 112.961H36.6938C35.0853 112.961 33.6531 111.988 33.5102 110.8L29.2665 75.5039C29.1236 74.3149 28.9021 72.4743 28.7739 71.4133C28.6471 70.3529 29.8581 69.485 31.4666 69.485H74.1187C75.7272 69.485 77.0575 69.485 77.0752 69.485C77.093 69.485 78.4223 69.485 80.0304 69.485H122.631C124.239 69.4845 125.451 70.3521 125.323 71.4131Z" fill="#DD512A"/>
</g>
<defs>
<clipPath id="clip0">
<rect y="45.5225" width="175" height="129.891" fill="white"/>
</clipPath>
</defs>
</svg>
