<svg width="90" height="167" viewBox="0 0 90 167" fill="none" xmlns="http://www.w3.org/2000/svg">
<path d="M56.4634 0C59.0566 9.90152 58.3494 14.8524 44.6758 26.1687C31.0022 37.4849 28.8804 37.7204 28.8804 44.7928C28.8804 51.8653 39.3715 63.0636 44.44 66.2464C44.44 66.2464 43.6149 64.2424 41.7289 61.1779C39.8428 58.1133 34.0671 52.9266 35.1277 45.029C36.1883 37.1315 52.868 27.0529 57.1705 19.45C61.4727 11.8463 60.4713 5.42227 56.4634 0Z" fill="#DE0A17"/>
<path d="M71.5516 24.9897C59.7641 28.8797 45.1475 35.0092 45.1475 46.9146C45.1475 58.8201 52.6913 56.5803 52.6913 62.9456C52.6913 69.3109 48.5654 71.1969 48.5654 71.1969C48.5654 71.1969 59.41 67.0711 58.9386 58.8198C58.4673 50.5685 51.9841 51.7473 51.9841 44.0853C51.9841 34.3871 71.5516 24.9897 71.5516 24.9897Z" fill="#DE0A17"/>
<path d="M29.8233 67.1893C18.0357 67.1893 9.90234 71.5506 9.90234 74.0259C9.90234 76.5012 24.401 78.8589 40.0786 77.798C55.7561 76.7371 64.0074 75.4406 70.2548 71.6682C70.2548 71.6682 59.1744 74.2614 50.6873 74.2614C42.2001 74.2614 17.9452 75.7783 18.5074 72.1396C19.0697 68.5011 33.1244 67.189 33.1244 67.189L29.8233 67.1893Z" fill="#DE0A17"/>
<path d="M25.4618 80.981C19.2144 83.2208 17.5639 85.4602 21.2184 87.8179C24.8725 90.1753 32.0629 90.8825 41.9644 90.8825C51.866 90.8825 65.6578 87.4638 65.6578 87.4638L61.1785 83.9272C61.1785 83.9272 55.0488 86.167 43.3791 86.167C31.7095 86.167 19.9807 86.4623 25.4618 80.981Z" fill="#DE0A17"/>
<path d="M28.2909 94.3008C22.1611 96.4227 20.8646 99.2513 26.2869 101.845C31.7092 104.438 42.0824 104.909 49.7441 103.849C57.4058 102.788 63.889 100.43 63.889 100.43C63.889 100.43 59.7044 98.8385 57.7592 96.8933C57.7592 96.8933 48.8007 98.7793 40.3136 98.7793C31.8264 98.7793 24.9905 97.6012 28.2909 94.3008Z" fill="#DE0A17"/>
<path d="M74.027 67.8962C74.027 67.8962 76.9736 63.8883 84.4001 66.9532C91.8264 70.0177 91.5905 78.2694 84.8715 83.22C78.1524 88.1706 70.019 89.8211 70.019 89.8211C70.019 89.8211 85.1073 83.22 84.7536 75.0866C84.4001 66.9535 77.4449 67.1894 74.027 67.8962Z" fill="#DE0A17"/>
<path d="M13.6746 110.802C36.8973 115.045 72.2599 110.685 78.5053 109.154C84.754 107.62 82.466 104.295 82.466 104.295C83.9935 105.374 84.6727 106.562 84.0468 107.856C80.6271 114.929 48.0935 116.106 38.5455 116.106C28.9974 116.106 0 115.519 0 110.332C0 105.208 13.6818 102.039 18.7882 103.217C9.1834 105.965 3.48291 108.939 13.6746 110.802Z" fill="#DE0A17"/>
<path d="M16.3267 118.376C16.3267 118.376 24.5486 124.653 65.4808 121.028C81.8361 119.702 88.6434 115.636 89.5276 111.127C89.5276 111.127 82.0128 115.37 72.73 117.139C63.4478 118.907 48.1531 121.648 16.3267 118.376Z" fill="#DE0A17"/>
<path d="M15.5357 127.451H8.7394C8.88945 133.155 9.0395 138.165 9.0395 143.373C9.0395 147.341 8.88945 152.001 8.88945 156.662C8.88945 159.741 8.18604 162.337 6.76074 164.662C8.35728 165.441 9.98218 166.169 11.632 166.848C14.0749 163.891 15.4643 160.223 15.3856 155.623C15.2855 151.852 15.2855 146.994 15.2855 143.373C15.2855 137.966 15.3856 132.708 15.5357 127.451Z" fill="#DE0A17"/>
<path d="M61.2961 137.073L57.1781 149.273C56.4354 151.505 55.8889 153.637 55.3926 155.769H54.9462C54.5996 153.587 54.1033 151.605 53.2604 149.273L51.9213 145.355C50.9284 142.58 50.0855 139.651 49.3428 136.826L42.5 137.669L52.0214 162.366L56.932 161.869L62.732 146.844C63.8749 143.919 65.3604 140.444 66.7498 137.369L61.2961 137.073Z" fill="#DE0A17"/>
<path d="M80.4034 136.822C77.6283 136.822 74.4534 137.419 70.239 139.751L71.3283 143.619L71.7248 143.865C74.4534 141.883 76.8856 140.94 78.7675 140.94C81.2961 140.94 83.1818 142.626 83.1818 145.308V147.486C72.3212 149.126 69.6426 152.497 69.6426 156.415C69.6426 160.533 72.5711 162.761 75.8424 162.761C78.571 162.761 80.9496 161.125 83.0854 159.34L83.5284 159.44C83.9714 161.669 85.4428 162.511 87.0711 162.647C87.7817 162.258 88.4889 161.858 89.1855 161.447V144.561C89.1855 139.355 86.0605 136.822 80.4034 136.822ZM83.1822 156.315C81.4001 157.855 79.9108 158.647 78.5713 158.647C76.8856 158.647 75.4962 157.558 75.4962 155.423C75.4962 153.14 77.0319 151.455 83.1818 150.562V156.315H83.1822Z" fill="#DE0A17"/>
<path d="M30.9605 136.826C28.1854 136.826 25.0105 137.419 20.7927 139.751L21.8854 143.619L22.2819 143.869C25.0105 141.883 27.439 140.94 29.3247 140.94C31.8533 140.94 33.739 142.626 33.739 145.305V147.487C22.8784 149.126 20.1997 152.498 20.1997 156.415C20.1997 160.533 23.1248 162.762 26.3996 162.762C29.1247 162.762 31.5067 161.126 33.6388 159.34L34.0852 159.44C34.5815 161.969 36.4173 162.716 38.2996 162.665C38.7637 162.665 39.2494 162.608 39.7389 162.505V144.562C39.7389 139.355 36.6138 136.826 30.9605 136.826ZM33.739 156.315C31.9534 157.855 30.4639 158.647 29.1247 158.647C27.439 158.647 26.0496 157.555 26.0496 155.423C26.0496 153.14 27.589 151.455 33.739 150.562V156.315Z" fill="#DE0A17"/>
</svg>
