<svg width="175" height="175" viewBox="0 0 175 175" fill="none" xmlns="http://www.w3.org/2000/svg">
<path d="M175 87.5C175 98.8999 172.821 109.789 168.853 119.779C166.732 125.122 164.1 130.207 161.014 134.971C157.171 140.914 152.625 146.361 147.496 151.189C144.493 154.022 141.293 156.639 137.914 159.025C123.664 169.089 106.275 175 87.5 175C68.7251 175 51.3358 169.089 37.0856 159.025C32.8569 156.04 28.9071 152.693 25.282 149.021C9.64995 133.218 0 111.482 0 87.5C0 63.5178 9.64995 41.7823 25.282 25.9786C29.1214 22.0931 33.3249 18.5678 37.8355 15.4537C51.9429 5.70698 69.0536 0 87.5 0C105.946 0 123.057 5.70698 137.164 15.4537C140.611 17.8288 143.875 20.45 146.936 23.2894C152.296 28.2464 157.032 33.8714 161.014 40.0285C164.1 44.7928 166.732 49.8784 168.854 55.2214C172.821 65.2107 175 76.1001 175 87.5Z" fill="#E4BA42"/>
<path d="M133.66 79.6286C131.225 72.5657 121.239 72.5657 119.291 78.4107C117.343 84.2558 123.919 87.6652 134.148 91.0753C144.376 94.4851 150.709 103.497 149.491 111.533C148.273 119.57 144.864 130.043 124.649 130.043C112.015 130.043 104.994 122.146 101.505 116.224L112.959 109.341C112.959 109.341 116.856 117.622 124.162 117.622C131.469 117.622 134.391 115.187 134.391 109.585C134.391 102.766 110.767 100.331 107.113 88.64C103.46 76.9496 108.331 60.3885 125.379 61.606C136.035 62.3671 142.028 67.5994 145.025 71.4165L133.66 79.6286Z" fill="#F2F2F2"/>
<path d="M80.5665 62.8242C80.5665 62.8242 80.5665 103.984 80.5665 109.585C80.5665 115.187 75.6955 118.11 70.8246 117.135C65.9536 116.161 63.7617 110.316 63.7617 110.316L52.5586 117.866C52.5586 117.866 54.9939 129.069 70.3375 130.044C85.6811 131.018 94.4485 121.763 94.4485 113.969C94.4485 106.176 94.4485 62.8242 94.4485 62.8242H80.5665Z" fill="#F2F2F2"/>
<path d="M25.2822 15.4536V149.021C28.9073 152.693 32.8571 156.039 37.0858 159.025H137.915C141.293 156.639 144.493 154.021 147.497 151.189H33.1179V23.2893H161.014V134.971C164.1 130.207 166.732 125.122 168.854 119.779V15.4536H25.2822Z" fill="#F2F2F2"/>
<path d="M30.0286 129.8C37.6954 129.8 43.9106 123.585 43.9106 115.918C43.9106 108.251 37.6954 102.036 30.0286 102.036C22.3617 102.036 16.1465 108.251 16.1465 115.918C16.1465 123.585 22.3617 129.8 30.0286 129.8Z" fill="#3F4A43"/>
</svg>
