<svg width="173" height="127" viewBox="0 0 173 127" fill="none" xmlns="http://www.w3.org/2000/svg">
<path d="M123.768 13.5276C123.768 13.5276 126.304 16.1362 126.738 18.0923C126.738 18.0923 128.55 16.7155 127.318 14.542C126.086 12.3682 123.768 13.5276 123.768 13.5276Z" fill="#5181A2"/>
<path d="M170.093 52.0499C167.814 50.9035 165.743 50.225 164.121 49.8248C161.928 49.282 160.153 47.6677 159.386 45.5428C158.4 42.8176 156.564 38.4033 153.186 31.7144C146.518 18.5285 139.129 14.4714 134.275 11.0643C131.09 8.82866 126.904 8.37509 124.404 8.32519C123.143 8.30024 121.929 7.8395 120.961 7.02875C118.414 4.88603 113.407 2.36801 111.814 3.31103C109.857 4.47177 111.814 7.15385 114.564 10.5575C117.318 13.9645 117.9 17.7325 119.854 22.804C120.757 25.1433 121.847 26.5577 122.754 27.4005C123.704 28.2861 124.014 29.6612 123.511 30.854C121.675 35.1935 121.061 40.6896 122.1 45.7718C123.333 51.786 126.157 51.7146 126.157 51.7146C125.868 43.6718 130.072 40.1933 130.072 40.1933C133.911 51.9289 142.679 60.697 142.679 60.697C135.579 58.1612 130.29 46.5685 130.29 46.5685C130.29 46.5685 129.711 47.1472 129.204 50.99C128.697 54.8294 124.057 57.1471 120.654 48.7437C117.247 40.3365 121.668 29.7579 121.668 29.7579C119.711 28.7435 115.654 19.3974 115.654 17.9471C115.654 16.5006 114.057 13.3113 112.104 11.3542C110.147 9.40048 106.307 3.74716 110.8 1.13994C115.289 -1.47071 124.204 5.55766 124.204 5.55766C138.261 5.05043 152.75 22.1505 155.068 28.2362C157.386 34.3219 163.907 46.4971 163.907 46.4971C165.757 47.058 167.496 47.7829 169.107 48.6077C169.457 49.7428 169.785 50.8926 170.093 52.0499Z" fill="#5181A2"/>
<path d="M172.739 67.6819C172.668 67.6498 172.6 67.6139 172.532 67.5818C168.039 65.4069 166.229 60.8426 166.229 60.8426C167.393 59.6784 169.457 59.0105 171.564 58.6318C171.754 59.6675 171.925 60.7069 172.075 61.7531C171.289 61.9066 170.793 61.9996 170.793 61.9996C170.793 62.4425 171.411 63.1032 172.357 63.8603C172.514 65.1246 172.639 66.3999 172.739 67.6819Z" fill="#5181A2"/>
<path d="M43.5856 115.057H36.739C36.739 115.057 36.739 99.4109 34.4568 80.8253L23.696 115.057H18.1535L7.23203 80.9894C7.23203 80.9894 5.96055 90.9999 5.78555 110.636C3.38545 105.35 1.49634 99.7858 0.182129 94.0036C0.685596 86.7357 1.39277 78.8142 2.34297 72.3501H11.2536L21.4142 103.975L32.175 72.3501H40.3251C40.3248 72.3501 43.5856 100.225 43.5856 115.057Z" fill="#FFA600"/>
<path d="M47.3633 83.8831L54.4276 83.7744C54.4276 83.7744 62.3614 107.576 61.6009 110.51C61.6009 110.51 66.709 96.2729 68.0133 83.7744H74.9689C74.9689 83.7744 71.2734 108.989 59.9709 122.248C55.7411 127.21 50.9946 127.271 46.7095 125.405V121.597C46.7095 121.597 52.5805 123.662 55.6239 119.314C58.0739 115.814 55.7339 109.779 53.5943 103.362C53.0754 101.808 47.3633 83.8831 47.3633 83.8831Z" fill="#FFA600"/>
<path d="M79.3159 111.923L81.1633 108.228C81.1633 108.228 93.8795 113.879 97.1396 108.228C100.4 102.576 97.2483 99.533 90.8362 96.1635C84.4241 92.7941 77.6855 88.5558 80.6199 79.3174C83.5545 70.0793 99.096 70.7315 103.552 75.1875L102.031 78.7739C102.031 78.7739 90.5104 73.8832 87.3587 80.2953C84.207 86.7074 92.5756 89.7507 94.532 90.6203C96.4885 91.4898 107.357 95.9455 106.161 103.88C104.966 111.814 100.075 116.704 88.8808 115.726C84.8585 114.749 82.5763 114.097 79.3159 111.923Z" fill="#5181A2"/>
<path d="M136.582 112.439C141.385 108.579 143.446 101.711 143.446 93.882C143.446 81.807 139.971 72.0176 126.242 72.0176C114.421 72.0176 109.039 81.807 109.039 93.882C109.039 105.957 112.974 115.746 126.242 115.746C128.164 115.746 129.907 115.507 131.478 115.057L141.699 121.053L144.199 116.161L136.582 112.439ZM126.242 110.51C118.549 110.51 116.267 103.064 116.267 93.882C116.267 84.6962 118.442 77.2536 126.242 77.2536C134.199 77.2536 136.214 84.6965 136.214 93.882C136.213 103.064 134.199 110.51 126.242 110.51Z" fill="#5181A2"/>
<path d="M165.51 109.968C164.728 111.739 163.882 113.478 162.986 115.185H149.525V72.5781H156.264V109.967H165.51V109.968Z" fill="#5181A2"/>
</svg>
