<svg width="175" height="176" viewBox="0 0 175 176" fill="none" xmlns="http://www.w3.org/2000/svg">
<g clip-path="url(#clip0)">
<path d="M164.538 85.7739V81.3579L160.714 79.1499L156.889 81.3579V85.7739L160.714 87.9823L164.538 85.7739Z" fill="#66A060"/>
<path d="M175 87.9136C175 136.239 135.825 175.414 87.5 175.414C42.9143 175.414 6.11782 142.067 0.692822 98.9529C0.23584 95.3384 0 91.6528 0 87.9136C0 81.0636 0.785791 74.3958 2.275 67.9991C11.2892 29.2708 46.025 0.413574 87.5 0.413574C128.871 0.413574 163.539 29.1279 172.654 67.7137C173.85 72.76 174.604 77.9745 174.879 83.3137C174.961 84.8384 175 86.3707 175 87.9136Z" fill="#F2F2F2"/>
<path d="M83.1231 94.9407V72.1911L63.4212 60.8164L43.7197 72.1911V94.9407L63.4212 106.315L83.1231 94.9407Z" fill="#3B8739"/>
<path d="M160.714 91.4884L173.554 98.9026L160.714 106.317L141.014 94.9419V72.1919L160.714 60.8169L172.654 67.7133C173.85 72.7596 174.604 77.9741 174.879 83.3133L167.579 87.5276V79.6027L160.714 75.642L153.85 79.6027V87.5276L160.714 91.4884Z" fill="#333333"/>
<path d="M34.4142 72.1922V102.192L21.2748 94.6958V79.3173L14.7144 75.5278L8.15356 79.317V94.6955L0.692822 98.9529C0.23584 95.3384 0 91.6528 0 87.9135C0 81.0636 0.785791 74.3958 2.275 67.9991L14.7144 60.8169L34.4142 72.1922Z" fill="#333333"/>
<path d="M83.1213 94.9377L63.4199 60.8149L43.7193 72.1894L63.4206 106.312L83.1213 94.9377Z" fill="#6DA75D"/>
<path d="M43.7197 94.9406L50.4846 83.9087L43.7197 72.1909V94.9406Z" fill="#55A344"/>
<path d="M76.5553 83.565L83.1232 72.1911L63.4214 60.8164L76.5553 83.565Z" fill="#639D57"/>
<path d="M118.45 34.4492V64.6312L111.847 60.8168L92.1431 72.1918V94.9418L111.847 106.317L131.547 94.9418V41.4598L118.45 34.4492ZM118.414 87.3563L111.846 91.1492L105.278 87.3563V79.7742L111.846 75.9813L118.414 79.7742V87.3563Z" fill="#333333"/>
<path d="M96.4373 123.022C96.4373 123.022 96.0503 119.697 92.4933 119.697C88.9358 119.697 86.5002 120.16 86.5002 122.133C86.5002 124.105 93.4216 124.105 96.051 124.878C98.6805 125.651 101 127.662 99.8402 131.219C98.6801 134.777 95.1227 135.163 89.6321 135.163C84.1415 135.163 82.9038 130.6 82.9038 128.822H85.9971C85.9971 128.822 85.6102 131.606 89.2448 132.07C92.8795 132.533 96.3549 132.795 96.8235 129.982C97.4421 126.27 85.0688 128.126 83.9859 124.491C83.0713 121.42 83.599 117.377 89.7859 116.758C95.9728 116.139 99.3753 118.87 99.3753 122.945L96.4373 123.022Z" fill="#66A060"/>
<path d="M66.5555 137.519L73.3942 141.467C76.8303 143.451 81.1253 140.971 81.1253 137.003V130.085V117.352H78.3379V136.228C78.3379 138.395 75.9925 139.749 74.1157 138.666L69.3425 135.91V115.765L86.7889 105.693L104.235 115.765V135.91L86.7889 145.982L81.7631 143.08L78.4811 144.404L86.7885 149.2L107.022 137.518V114.156L86.7889 102.474L66.5552 114.156V137.519H66.5555Z" fill="#66A060"/>
</g>
<defs>
<clipPath id="clip0">
<rect y="0.413574" width="175" height="175" fill="white"/>
</clipPath>
</defs>
</svg>
