<svg width="175" height="176" viewBox="0 0 175 176" fill="none" xmlns="http://www.w3.org/2000/svg">
<g clip-path="url(#clip0)">
<path d="M173.891 85.9709V105.813C173.891 116.308 165.383 124.814 154.887 124.814H95.6043C92.3493 124.814 89.7337 127.533 89.8859 130.82C90.0381 133.933 92.7311 136.259 95.7672 136.259H109.788C112.952 136.259 115.513 138.824 115.513 141.984V156.29C115.513 166.854 106.949 175.414 96.3907 175.414H79.7588C69.1965 175.414 60.6329 166.854 60.6329 156.29V105.89H20.3703C9.87473 105.89 1.36719 97.3824 1.36719 86.8868V70.012C1.36719 59.5164 9.87473 51.0089 20.3703 51.0089H60.6329V51.0062H77.9858C81.2342 51.0062 83.8524 48.2985 83.7042 45.0114C83.5587 41.9325 80.9084 39.5587 77.8229 39.5587H66.358C63.1977 39.5587 60.6329 36.9965 60.6329 33.8362V19.5368C60.6329 8.97318 69.1965 0.413574 79.7588 0.413574H96.3907C106.932 0.413574 115.482 8.94114 115.513 19.4834V66.9678H154.887C165.383 66.9678 173.891 75.4794 173.891 85.9709Z" fill="#FFDA44"/>
<path d="M173.891 85.9709V105.813C173.891 116.308 165.383 124.814 154.888 124.814H95.6044C92.3494 124.814 89.7338 127.533 89.886 130.82C90.0382 133.933 92.7312 136.259 95.7673 136.259H109.788C112.952 136.259 115.513 138.824 115.513 141.984V156.29C115.513 166.854 106.949 175.414 96.3908 175.414H88.0742V0.413574H96.3908C106.932 0.413574 115.482 8.94114 115.513 19.4834V66.9678H154.888C165.383 66.9678 173.891 75.4794 173.891 85.9709Z" fill="#FFCD00"/>
<path d="M110.148 149.835C110.148 152.995 107.587 155.557 104.427 155.557C101.267 155.557 98.7046 152.995 98.7046 149.835C98.7046 146.675 101.267 144.114 104.427 144.114C107.587 144.114 110.148 146.675 110.148 149.835Z" fill="#4895FF"/>
<path d="M110.148 149.835C110.148 152.995 107.588 155.557 104.427 155.557V144.114C107.588 144.114 110.148 146.675 110.148 149.835Z" fill="#2682FF"/>
<path d="M115.513 19.4834V66.9678V74.8131C115.513 81.1377 110.39 86.2607 104.065 86.2607H66.358C63.1977 86.2607 60.6329 88.8268 60.6329 91.9831V105.89H20.3703C9.87473 105.89 1.36719 97.3797 1.36719 86.8868V70.012C1.36719 59.5191 9.87473 51.0089 20.3703 51.0089H60.6329V51.0062H77.9858C81.2342 51.0062 83.8524 48.2985 83.7042 45.0114C83.5587 41.9325 80.9084 39.5587 77.8229 39.5587H66.358C63.1977 39.5587 60.6329 36.9965 60.6329 33.8362V19.5368C60.6329 8.97318 69.1965 0.413574 79.7588 0.413574H96.3907C106.932 0.413574 115.482 8.94114 115.513 19.4834Z" fill="#4895FF"/>
<path d="M115.513 19.4834V66.9678V74.8131C115.513 81.1377 110.39 86.2607 104.065 86.2607H88.0742V0.413574H96.3908C106.932 0.413574 115.482 8.94114 115.513 19.4834Z" fill="#2682FF"/>
<path d="M78.7615 27.3114C78.7615 30.4703 76.1993 33.0325 73.0391 33.0325C69.8748 33.0325 67.314 30.4703 67.314 27.3114C67.314 24.1511 69.8748 21.585 73.0391 21.585C76.1993 21.585 78.7615 24.1511 78.7615 27.3114Z" fill="#FFDA44"/>
<path d="M78.7615 27.3114C78.7615 30.4703 76.1993 33.0325 73.0391 33.0325V21.585C76.1993 21.585 78.7615 24.1511 78.7615 27.3114Z" fill="#FFCD00"/>
<path d="M4.22891 11.4521H15.1249C17.4609 11.4521 19.2209 11.8681 20.4049 12.7001C21.6209 13.5321 22.4369 14.7481 22.8529 16.3481C23.2689 17.9161 23.4769 20.0121 23.4769 22.6361C23.4769 25.1641 23.2849 27.2281 22.9009 28.8281C22.5169 30.3961 21.7169 31.6441 20.5009 32.5721C19.2849 33.4681 17.4769 33.9161 15.0769 33.9161H10.8529V44.4761H4.22891V11.4521ZM13.4449 28.1081C14.5329 28.1081 15.3009 27.9801 15.7489 27.7241C16.1969 27.4681 16.4849 26.9881 16.6129 26.2841C16.7729 25.5481 16.8529 24.3321 16.8529 22.6361C16.8529 20.9401 16.7729 19.7401 16.6129 19.0361C16.4849 18.3321 16.1969 17.8681 15.7489 17.6441C15.3329 17.3881 14.5809 17.2601 13.4929 17.2601H10.8529V28.1081H13.4449ZM34.7382 54.2201C33.5862 54.2201 32.3702 54.1721 31.0902 54.0761C29.8102 53.9801 28.7702 53.8681 27.9702 53.7401V48.9401C29.1542 48.9721 30.9302 48.9881 33.2982 48.9881C34.7702 48.9881 35.7942 48.8601 36.3702 48.6041C36.9782 48.3801 37.3462 47.9001 37.4742 47.1641C37.6342 46.4601 37.7142 45.1801 37.7142 43.3241V41.2601H37.3782C36.6102 43.3721 34.8662 44.4281 32.1462 44.4281C30.5462 44.4281 29.3462 44.1081 28.5462 43.4681C27.7782 42.7961 27.2662 41.8201 27.0102 40.5401C26.7542 39.2281 26.6262 37.3721 26.6262 34.9721V19.9961H32.8182V32.8601C32.8182 34.9081 32.8662 36.3161 32.9622 37.0841C33.0582 37.8521 33.2502 38.3481 33.5382 38.5721C33.8582 38.7641 34.4182 38.8601 35.2182 38.8601C36.0502 38.8601 36.6262 38.7001 36.9462 38.3801C37.2662 38.0601 37.4742 37.4841 37.5702 36.6521C37.6662 35.7881 37.7142 34.2841 37.7142 32.1401V19.9961H43.9062V41.5961C43.9062 44.8921 43.7302 47.3721 43.3782 49.0361C43.0262 50.7321 42.1942 52.0121 40.8822 52.8761C39.6022 53.7721 37.5542 54.2201 34.7382 54.2201ZM49.8675 44.4761V25.1801H46.8435V19.9961H49.8675V12.8921H56.0595V19.9961H59.9475V25.1801H56.0595V44.4761H49.8675ZM73.9039 31.2281C73.9039 29.1801 73.8559 27.7721 73.7599 27.0041C73.6639 26.2361 73.4719 25.7561 73.1839 25.5641C72.8959 25.3401 72.3519 25.2281 71.5519 25.2281C70.7199 25.2281 70.1279 25.3881 69.7759 25.7081C69.4559 26.0281 69.2479 26.6361 69.1519 27.5321C69.0559 28.3961 69.0079 29.8681 69.0079 31.9481V44.4761H62.8159V8.81207H69.0079V22.8281H69.3439C69.7599 21.6441 70.4159 20.8121 71.3119 20.3321C72.2399 19.8521 73.3439 19.6121 74.6239 19.6121C76.1599 19.6121 77.3119 19.9161 78.0799 20.5241C78.8799 21.1321 79.4079 22.0441 79.6639 23.2601C79.9519 24.4761 80.0959 26.1561 80.0959 28.3001V44.4761H73.9039V31.2281ZM92.6813 44.8601C89.9293 44.8601 87.9453 44.5081 86.7293 43.8041C85.5133 43.1001 84.7293 41.9161 84.3773 40.2521C84.0253 38.5881 83.8493 35.9161 83.8493 32.2361C83.8493 28.5561 84.0253 25.8841 84.3773 24.2201C84.7293 22.5561 85.5133 21.3721 86.7293 20.6681C87.9453 19.9641 89.9293 19.6121 92.6813 19.6121C95.4333 19.6121 97.4173 19.9641 98.6333 20.6681C99.8493 21.3721 100.633 22.5561 100.985 24.2201C101.337 25.8841 101.513 28.5561 101.513 32.2361C101.513 35.9161 101.337 38.5881 100.985 40.2521C100.633 41.9161 99.8493 43.1001 98.6333 43.8041C97.4173 44.5081 95.4333 44.8601 92.6813 44.8601ZM92.6813 39.6761C93.6093 39.6761 94.2333 39.5321 94.5533 39.2441C94.9053 38.9561 95.1133 38.3641 95.1773 37.4681C95.2733 36.5401 95.3213 34.7961 95.3213 32.2361C95.3213 29.6761 95.2733 27.9481 95.1773 27.0521C95.1133 26.1241 94.9053 25.5161 94.5533 25.2281C94.2333 24.9401 93.6093 24.7961 92.6813 24.7961C91.7533 24.7961 91.1133 24.9401 90.7613 25.2281C90.4413 25.5161 90.2333 26.1241 90.1373 27.0521C90.0733 27.9481 90.0413 29.6761 90.0413 32.2361C90.0413 34.7961 90.0733 36.5401 90.1373 37.4681C90.2333 38.3641 90.4413 38.9561 90.7613 39.2441C91.1133 39.5321 91.7533 39.6761 92.6813 39.6761ZM116.42 31.2281C116.42 29.1801 116.372 27.7721 116.276 27.0041C116.18 26.2361 115.988 25.7561 115.7 25.5641C115.412 25.3401 114.868 25.2281 114.068 25.2281C113.236 25.2281 112.644 25.3881 112.292 25.7081C111.972 26.0281 111.764 26.6361 111.668 27.5321C111.572 28.3961 111.524 29.8681 111.524 31.9481V44.4761H105.332V19.9961H111.188L111.38 22.9241H111.716C112.164 21.7081 112.852 20.8601 113.78 20.3801C114.708 19.8681 115.828 19.6121 117.14 19.6121C118.676 19.6121 119.828 19.9161 120.596 20.5241C121.396 21.1321 121.924 22.0601 122.18 23.3081C122.468 24.5241 122.612 26.2201 122.612 28.3961V44.4761H116.42V31.2281Z" fill="black"/>
</g>
<defs>
<clipPath id="clip0">
<path d="M0 0.413574H175V175.414H0V0.413574Z" fill="white"/>
</clipPath>
</defs>
</svg>
