<svg width="175" height="176" viewBox="0 0 175 176" fill="none" xmlns="http://www.w3.org/2000/svg">
<g clip-path="url(#clip0)">
<path d="M175 87.9136C175 116.742 161.057 142.314 139.55 158.256C130.546 164.928 120.218 169.913 109.032 172.742C102.143 174.489 94.932 175.414 87.5 175.414C80.068 175.414 72.8537 174.489 65.9644 172.742C54.7788 169.913 44.45 164.928 35.4464 158.253C13.9392 142.31 0 116.739 0 87.9136C0 39.5886 39.175 0.413574 87.5 0.413574C135.825 0.413574 175 39.5886 175 87.9136Z" fill="#5ADAFD"/>
<path d="M139.64 137.181C139.229 134.428 138.686 131.592 138.015 128.692C137.422 126.146 136.733 123.549 135.951 120.913C133.893 113.992 131.183 106.799 127.897 99.5279C126.458 96.3492 124.908 93.1564 123.254 89.9671C121.797 87.1565 120.261 84.3422 118.643 81.5456C117.029 78.7456 115.365 76.0099 113.654 73.3421C111.722 70.3172 109.733 67.3815 107.697 64.5456C103.047 58.0635 98.1721 52.1172 93.2041 46.8741C91.315 44.8776 89.4112 42.9848 87.5005 41.2026C85.3257 39.1669 83.1399 37.2778 80.9575 35.5456C66.7111 24.2348 53.9576 20.8384 45.0398 25.9848C36.122 31.1347 32.6862 43.8775 35.3577 61.8742C35.7648 64.6277 36.3113 67.4636 36.9864 70.3634C37.5722 72.9098 38.2613 75.5064 39.0471 78.142C41.1043 85.0634 43.8148 92.2599 47.1042 99.5275C48.5401 102.706 50.0898 105.895 51.7434 109.085C53.2005 111.899 54.74 114.709 56.3543 117.509C57.9686 120.309 59.6328 123.045 61.3435 125.713C63.2791 128.742 65.2683 131.677 67.3007 134.513C71.9508 140.995 76.8255 146.938 81.7935 152.181C83.683 154.177 85.5899 156.073 87.5005 157.856C89.6754 159.891 91.8612 161.777 94.0398 163.509C99.2792 167.67 104.315 170.759 109.033 172.741C120.218 169.913 130.547 164.927 139.55 158.256C140.807 152.463 140.854 145.367 139.64 137.181ZM131.618 156.956C130.579 161.449 128.668 164.528 125.936 166.103C123.207 167.681 119.586 167.796 115.175 166.453C110.396 164.992 104.818 161.799 99.0396 157.21C97.0968 155.667 95.1503 153.988 93.2037 152.185C91.2965 150.413 89.3893 148.52 87.4968 146.517C84.2466 143.078 81.0324 139.313 77.8967 135.274C75.8039 132.578 73.7432 129.76 71.7324 126.835C68.8145 122.595 65.9967 118.131 63.3181 113.488C60.636 108.845 58.1788 104.174 55.9681 99.5275C54.4395 96.3239 53.0286 93.1311 51.7431 89.9706C49.8109 85.235 48.1573 80.567 46.8038 76.0348C46.018 73.392 45.3289 70.7992 44.7537 68.26C44.1607 65.6743 43.6787 63.1456 43.3144 60.6922C42.2288 53.3959 42.2538 46.9674 43.3787 42.0995C44.4181 37.6066 46.3321 34.528 49.0607 32.953C50.5355 32.103 52.2678 31.6744 54.2427 31.6744C55.9284 31.6744 57.7926 31.9851 59.8211 32.6064C64.5998 34.0635 70.1783 37.26 75.9567 41.8459C77.8994 43.3888 79.8494 45.0673 81.7925 46.8782C83.7032 48.6459 85.607 50.5388 87.4961 52.539C90.7496 55.9782 93.9639 59.7427 97.1033 63.7855C99.1961 66.4819 101.257 69.2997 103.268 72.2248C106.182 76.4641 109 80.9283 111.678 85.5675C114.36 90.2105 116.817 94.8818 119.028 99.5282C120.557 102.735 121.968 105.928 123.253 109.089C125.185 113.825 126.839 118.489 128.192 123.021C128.978 125.664 129.667 128.257 130.246 130.796C130.835 133.381 131.318 135.91 131.682 138.364C132.768 145.66 132.743 152.088 131.618 156.956Z" fill="#F2F2F2"/>
<path d="M146.179 73.2023C143.589 72.1811 140.861 71.2346 138.011 70.363C135.511 69.6022 132.918 68.8988 130.243 68.2596C123.221 66.5811 115.636 65.3311 107.697 64.5453C104.229 64.1987 100.689 63.9455 97.1036 63.7845C93.9392 63.6382 90.7321 63.563 87.5001 63.563C84.2681 63.563 81.0606 63.6378 77.8929 63.7845C74.3037 63.9451 70.7644 64.2025 67.2965 64.5453C59.3572 65.3311 51.7751 66.5811 44.7536 68.2596C42.0787 68.8988 39.4858 69.6025 36.9856 70.363C34.1357 71.2309 31.4071 72.1811 28.8177 73.2023C11.9001 79.8807 2.57861 89.2309 2.57861 99.5272C2.57861 109.823 11.9001 119.174 28.818 125.856C31.4075 126.877 34.1323 127.824 36.9822 128.695C39.4821 129.456 42.075 130.159 44.7502 130.795C51.7717 132.477 59.3572 133.724 67.3002 134.513C70.7681 134.856 74.3074 135.109 77.8966 135.274C81.061 135.42 84.2681 135.491 87.5001 135.491C90.7321 135.491 93.9358 135.42 97.1001 135.274C100.689 135.109 104.225 134.856 107.697 134.513C115.636 133.727 123.225 132.477 130.247 130.795C132.921 130.156 135.514 129.456 138.015 128.692C140.861 127.824 143.59 126.877 146.179 125.856C163.1 119.174 172.418 109.824 172.418 99.5272C172.418 89.2309 163.1 79.8807 146.179 73.2023ZM159.293 109.02C155.643 112.431 150.086 115.663 143.225 118.374C140.914 119.284 138.486 120.134 135.95 120.913C133.46 121.681 130.871 122.384 128.193 123.02C123.589 124.116 118.721 125.016 113.653 125.713C110.275 126.181 106.807 126.556 103.268 126.831C98.1355 127.242 92.8605 127.449 87.4997 127.449C82.139 127.449 76.8641 127.242 71.732 126.835C68.1927 126.556 64.7214 126.181 61.3427 125.713C56.2749 125.017 51.407 124.117 46.8034 123.02C44.1247 122.385 41.5356 121.681 39.0463 120.913C36.5105 120.134 34.082 119.284 31.7711 118.374C24.9106 115.663 19.3533 112.431 15.7033 109.02C12.3318 105.874 10.6211 102.681 10.6211 99.5275C10.6211 96.3741 12.3318 93.1811 15.7033 90.0348C19.3533 86.624 24.9103 83.392 31.7711 80.6812C34.0817 79.7707 36.5105 78.9206 39.0463 78.142C41.5356 77.374 44.1247 76.6706 46.8034 76.0348C51.407 74.9383 56.2749 74.0384 61.3427 73.3418C64.7214 72.8739 68.1927 72.4989 71.732 72.2204C76.8641 71.8133 82.139 71.6062 87.4997 71.6062C92.8605 71.6062 98.1355 71.8133 103.268 72.2241C106.807 72.4993 110.275 72.8742 113.653 73.3421C118.721 74.0387 123.589 74.9387 128.193 76.0352C130.871 76.6709 133.46 77.3743 135.95 78.1423C138.486 78.9209 140.914 79.771 143.225 80.6815C150.085 83.3923 155.643 86.6244 159.293 90.0352C162.664 93.1817 164.375 96.3745 164.375 99.5279C164.375 102.681 162.664 105.874 159.293 109.02Z" fill="#F2F2F2"/>
<path d="M129.957 25.9848C121.039 20.8384 108.286 24.2348 94.0393 35.5456C91.8606 37.2778 89.6749 39.1669 87.5 41.2026C85.5894 42.9848 83.6821 44.8811 81.793 46.8775C76.825 52.1203 71.9503 58.0631 67.2967 64.5453C65.2648 67.3809 63.2752 70.3169 61.3433 73.3418C59.6326 76.0095 57.9684 78.7453 56.3541 81.5453C54.7398 84.3453 53.2007 87.1559 51.7433 89.9702C50.0897 93.1595 48.5396 96.3522 47.1041 99.5272C43.8146 106.799 41.1042 113.991 39.0469 120.913C38.2611 123.552 37.572 126.148 36.9824 128.695C36.3111 131.595 35.7646 134.427 35.3575 137.181C34.1431 145.363 34.1896 152.459 35.4467 158.252C44.4504 164.927 54.7788 169.913 65.9648 172.741C70.6826 170.759 75.7183 167.67 80.9577 163.509C83.1397 161.777 85.3255 159.888 87.5007 157.856C89.4113 156.073 91.3151 154.181 93.2043 152.184C98.1685 146.941 103.047 140.995 107.697 134.512C109.729 131.677 111.719 128.741 113.654 125.713C115.365 123.045 117.029 120.309 118.644 117.509C120.261 114.713 121.797 111.902 123.254 109.088C124.908 105.898 126.458 102.706 127.897 99.5268C131.183 92.2589 133.894 85.0627 135.951 78.1413C136.733 75.5057 137.422 72.9091 138.011 70.3627C138.686 67.4625 139.229 64.627 139.64 61.8735C142.311 43.8775 138.875 31.1347 129.957 25.9848ZM128.193 76.0348C126.839 80.567 125.186 85.2312 123.254 89.9668C121.968 93.1274 120.557 96.3205 119.029 99.5275C116.818 104.174 114.361 108.845 111.679 113.488C109 118.127 106.182 122.592 103.268 126.831C101.254 129.759 99.1932 132.577 97.1004 135.274C93.9648 139.313 90.7505 143.077 87.4969 146.516C85.6078 148.516 83.704 150.409 81.7934 152.181C79.8506 153.988 77.9006 155.666 75.9575 157.209C70.1791 161.798 64.6003 164.991 59.822 166.452C55.4114 167.795 51.7898 167.68 49.0612 166.102C46.3326 164.527 44.4182 161.448 43.3792 156.956C42.2543 152.088 42.229 145.659 43.3149 138.363C43.6793 135.909 44.1612 133.381 44.7504 130.795C45.3291 128.256 46.0182 125.663 46.804 123.02C48.1575 118.488 49.8111 113.82 51.7433 109.085C53.0291 105.924 54.4397 102.731 55.9682 99.5275C58.179 94.8811 60.6361 90.2098 63.3182 85.5668C65.9969 80.9239 68.8147 76.4597 71.7326 72.2204C73.7434 69.2953 75.8003 66.4775 77.8931 63.7848C81.0325 59.742 84.2468 55.9778 87.4966 52.5383C89.3895 50.5347 91.2967 48.6418 93.2036 46.8741C95.1501 45.067 97.0963 43.3884 99.0394 41.8456C104.818 37.26 110.397 34.0635 115.175 32.6061C117.204 31.9847 119.068 31.674 120.753 31.674C122.728 31.674 124.464 32.1026 125.935 32.9527C128.667 34.5277 130.578 37.6062 131.617 42.0992C132.742 46.967 132.768 53.3956 131.682 60.6919C131.317 63.1453 130.835 65.6739 130.242 68.2596C129.668 70.7988 128.978 73.3917 128.193 76.0348Z" fill="#F2F2F2"/>
<path d="M87.5001 115.488C96.3149 115.488 103.461 108.342 103.461 99.5274C103.461 90.7127 96.3149 83.5669 87.5001 83.5669C78.6853 83.5669 71.5396 90.7127 71.5396 99.5274C71.5396 108.342 78.6853 115.488 87.5001 115.488Z" fill="#F2F2F2"/>
<path d="M70.888 170.414L67.672 158.894H64.12V170.414H57.496V137.39H68.632C71 137.39 72.776 137.79 73.96 138.59C75.176 139.39 75.992 140.542 76.408 142.046C76.824 143.55 77.032 145.566 77.032 148.094C77.032 150.494 76.808 152.478 76.36 154.046C75.944 155.614 75.08 156.798 73.768 157.598L77.752 170.414H70.888ZM67.048 153.182C68.104 153.182 68.856 153.07 69.304 152.846C69.752 152.59 70.04 152.142 70.168 151.502C70.328 150.83 70.408 149.71 70.408 148.142C70.408 146.606 70.328 145.518 70.168 144.878C70.04 144.238 69.752 143.806 69.304 143.582C68.856 143.326 68.104 143.198 67.048 143.198H64.12V153.182H67.048ZM97.4388 160.094H86.5428C86.5428 161.918 86.6228 163.182 86.7828 163.886C86.9428 164.59 87.3108 165.054 87.8868 165.278C88.4628 165.502 89.5028 165.614 91.0068 165.614C92.2228 165.614 94.1748 165.518 96.8628 165.326V170.078C95.9988 170.27 94.8788 170.43 93.5028 170.558C92.1268 170.718 90.8148 170.798 89.5668 170.798C86.7188 170.798 84.6388 170.382 83.3268 169.55C82.0468 168.686 81.2308 167.422 80.8788 165.758C80.5268 164.094 80.3508 161.582 80.3508 158.222C80.3508 154.926 80.5268 152.43 80.8788 150.734C81.2308 149.038 82.0308 147.758 83.2788 146.894C84.5268 145.998 86.4948 145.55 89.1828 145.55C91.8068 145.55 93.6948 145.966 94.8468 146.798C96.0308 147.598 96.7508 148.814 97.0068 150.446C97.2948 152.078 97.4388 154.67 97.4388 158.222V160.094ZM89.1348 150.686C88.3348 150.686 87.7588 150.798 87.4068 151.022C87.0868 151.246 86.8628 151.71 86.7348 152.414C86.6068 153.118 86.5428 154.286 86.5428 155.918H91.6308C91.6308 154.286 91.5668 153.118 91.4388 152.414C91.3108 151.678 91.0868 151.214 90.7668 151.022C90.4468 150.798 89.9028 150.686 89.1348 150.686ZM105.877 170.798C103.893 170.798 102.469 170.206 101.605 169.022C100.741 167.806 100.309 165.918 100.309 163.358C100.309 161.47 100.501 159.998 100.885 158.942C101.269 157.854 101.909 157.07 102.805 156.59C103.733 156.078 105.013 155.822 106.645 155.822C107.797 155.822 109.333 155.886 111.253 156.014V154.91C111.253 153.566 111.141 152.622 110.917 152.078C110.725 151.502 110.341 151.134 109.765 150.974C109.221 150.814 108.261 150.734 106.885 150.734C105.541 150.734 103.749 150.846 101.509 151.07V146.27C103.909 145.79 106.325 145.55 108.757 145.55C111.157 145.55 112.981 145.87 114.229 146.51C115.477 147.15 116.325 148.158 116.773 149.534C117.221 150.91 117.445 152.878 117.445 155.438V170.414H111.541L111.349 167.534H111.013C110.597 168.718 109.925 169.566 108.997 170.078C108.069 170.558 107.029 170.798 105.877 170.798ZM108.565 165.422C109.109 165.422 109.541 165.358 109.861 165.23C110.213 165.102 110.501 164.862 110.725 164.51C111.077 163.966 111.253 162.862 111.253 161.198V159.998H108.373C107.541 159.998 106.981 160.174 106.693 160.526C106.437 160.878 106.309 161.646 106.309 162.83C106.309 163.854 106.437 164.542 106.693 164.894C106.981 165.246 107.605 165.422 108.565 165.422ZM134.667 170.078C133.035 170.558 131.243 170.798 129.291 170.798C126.923 170.798 125.163 170.35 124.011 169.454C122.859 168.558 122.091 167.246 121.707 165.518C121.355 163.79 121.179 161.342 121.179 158.174C121.179 155.006 121.371 152.542 121.755 150.782C122.171 149.022 122.955 147.71 124.107 146.846C125.259 145.982 126.971 145.55 129.243 145.55C131.419 145.55 133.179 145.774 134.523 146.222V151.022C133.051 150.83 131.883 150.734 131.019 150.734C129.867 150.734 129.051 150.894 128.571 151.214C128.091 151.534 127.771 152.19 127.611 153.182C127.451 154.174 127.371 155.838 127.371 158.174C127.371 160.542 127.451 162.222 127.611 163.214C127.803 164.206 128.139 164.862 128.619 165.182C129.099 165.47 129.915 165.614 131.067 165.614C131.867 165.614 133.067 165.518 134.667 165.326V170.078ZM139.65 170.414V151.118H136.626V145.934H139.65V138.83H145.842V145.934H149.73V151.118H145.842V170.414H139.65Z" fill="black"/>
</g>
<defs>
<clipPath id="clip0">
<path d="M0 0.413574H175V175.414H0V0.413574Z" fill="white"/>
</clipPath>
</defs>
</svg>
